<mxfile host="65bd71144e">
    <diagram name="Página-1" id="_f553Tm1Y8BKsm4qPmav">
        <mxGraphModel dx="398" dy="237" grid="1" gridSize="10" guides="1" tooltips="1" connect="1" arrows="1" fold="1" page="1" pageScale="1" pageWidth="827" pageHeight="1169" math="0" shadow="0">
            <root>
                <mxCell id="0"/>
                <mxCell id="1" parent="0"/>
                <mxCell id="YErhwaJgUylqlBmE_m-7-1" value="Início" style="strokeWidth=2;html=1;shape=mxgraph.flowchart.start_2;whiteSpace=wrap;fillColor=#d5e8d4;strokeColor=#82b366;" parent="1" vertex="1">
                    <mxGeometry x="80" y="40" width="100" height="100" as="geometry"/>
                </mxCell>
                <mxCell id="YErhwaJgUylqlBmE_m-7-4" value="" style="edgeStyle=orthogonalEdgeStyle;rounded=0;orthogonalLoop=1;jettySize=auto;html=1;" parent="1" source="YErhwaJgUylqlBmE_m-7-2" target="YErhwaJgUylqlBmE_m-7-3" edge="1">
                    <mxGeometry relative="1" as="geometry"/>
                </mxCell>
                <mxCell id="YErhwaJgUylqlBmE_m-7-5" value="Verdadeira" style="edgeLabel;html=1;align=center;verticalAlign=middle;resizable=0;points=[];" parent="YErhwaJgUylqlBmE_m-7-4" vertex="1" connectable="0">
                    <mxGeometry x="-0.02" relative="1" as="geometry">
                        <mxPoint as="offset"/>
                    </mxGeometry>
                </mxCell>
                <mxCell id="YErhwaJgUylqlBmE_m-7-2" value="Condição" style="strokeWidth=2;html=1;shape=mxgraph.flowchart.decision;whiteSpace=wrap;fillColor=#fa6800;fontColor=#000000;strokeColor=#C73500;" parent="1" vertex="1">
                    <mxGeometry x="80" y="230" width="100" height="100" as="geometry"/>
                </mxCell>
                <mxCell id="YErhwaJgUylqlBmE_m-7-3" value="Executa" style="whiteSpace=wrap;html=1;strokeWidth=2;fillColor=#1ba1e2;strokeColor=#006EAF;fontColor=#ffffff;" parent="1" vertex="1">
                    <mxGeometry x="70" y="430" width="120" height="60" as="geometry"/>
                </mxCell>
                <mxCell id="YErhwaJgUylqlBmE_m-7-6" style="edgeStyle=orthogonalEdgeStyle;rounded=0;orthogonalLoop=1;jettySize=auto;html=1;entryX=1;entryY=0.5;entryDx=0;entryDy=0;entryPerimeter=0;" parent="1" source="YErhwaJgUylqlBmE_m-7-3" target="YErhwaJgUylqlBmE_m-7-2" edge="1">
                    <mxGeometry relative="1" as="geometry">
                        <Array as="points">
                            <mxPoint x="230" y="460"/>
                            <mxPoint x="230" y="280"/>
                        </Array>
                    </mxGeometry>
                </mxCell>
                <mxCell id="YErhwaJgUylqlBmE_m-7-7" value="FIM" style="strokeWidth=2;html=1;shape=mxgraph.flowchart.start_2;whiteSpace=wrap;fillColor=#f8cecc;strokeColor=#b85450;" parent="1" vertex="1">
                    <mxGeometry x="80" y="570" width="100" height="100" as="geometry"/>
                </mxCell>
                <mxCell id="YErhwaJgUylqlBmE_m-7-8" style="edgeStyle=orthogonalEdgeStyle;rounded=0;orthogonalLoop=1;jettySize=auto;html=1;entryX=0;entryY=0.5;entryDx=0;entryDy=0;entryPerimeter=0;" parent="1" source="YErhwaJgUylqlBmE_m-7-2" target="YErhwaJgUylqlBmE_m-7-7" edge="1">
                    <mxGeometry relative="1" as="geometry">
                        <Array as="points">
                            <mxPoint x="40" y="280"/>
                            <mxPoint x="40" y="620"/>
                        </Array>
                    </mxGeometry>
                </mxCell>
                <mxCell id="YErhwaJgUylqlBmE_m-7-9" value="Falsa" style="edgeLabel;html=1;align=center;verticalAlign=middle;resizable=0;points=[];" parent="YErhwaJgUylqlBmE_m-7-8" vertex="1" connectable="0">
                    <mxGeometry x="0.219" y="1" relative="1" as="geometry">
                        <mxPoint as="offset"/>
                    </mxGeometry>
                </mxCell>
                <mxCell id="YErhwaJgUylqlBmE_m-7-10" style="edgeStyle=orthogonalEdgeStyle;rounded=0;orthogonalLoop=1;jettySize=auto;html=1;entryX=0.5;entryY=0;entryDx=0;entryDy=0;entryPerimeter=0;" parent="1" source="YErhwaJgUylqlBmE_m-7-1" target="YErhwaJgUylqlBmE_m-7-2" edge="1">
                    <mxGeometry relative="1" as="geometry"/>
                </mxCell>
                <mxCell id="YErhwaJgUylqlBmE_m-7-21" style="edgeStyle=orthogonalEdgeStyle;rounded=0;orthogonalLoop=1;jettySize=auto;html=1;entryX=0.5;entryY=0;entryDx=0;entryDy=0;" parent="1" source="YErhwaJgUylqlBmE_m-7-11" target="YErhwaJgUylqlBmE_m-7-15" edge="1">
                    <mxGeometry relative="1" as="geometry"/>
                </mxCell>
                <mxCell id="YErhwaJgUylqlBmE_m-7-11" value="Início" style="strokeWidth=2;html=1;shape=mxgraph.flowchart.start_2;whiteSpace=wrap;fillColor=#d5e8d4;strokeColor=#82b366;" parent="1" vertex="1">
                    <mxGeometry x="320" y="40" width="100" height="100" as="geometry"/>
                </mxCell>
                <mxCell id="YErhwaJgUylqlBmE_m-7-14" value="Condição" style="strokeWidth=2;html=1;shape=mxgraph.flowchart.decision;whiteSpace=wrap;fillColor=#fa6800;fontColor=#000000;strokeColor=#C73500;" parent="1" vertex="1">
                    <mxGeometry x="320" y="310" width="100" height="100" as="geometry"/>
                </mxCell>
                <mxCell id="YErhwaJgUylqlBmE_m-7-15" value="Executa" style="whiteSpace=wrap;html=1;strokeWidth=2;fillColor=#1ba1e2;strokeColor=#006EAF;fontColor=#ffffff;" parent="1" vertex="1">
                    <mxGeometry x="310" y="180" width="120" height="60" as="geometry"/>
                </mxCell>
                <mxCell id="YErhwaJgUylqlBmE_m-7-17" value="FIM" style="strokeWidth=2;html=1;shape=mxgraph.flowchart.start_2;whiteSpace=wrap;fillColor=#f8cecc;strokeColor=#b85450;" parent="1" vertex="1">
                    <mxGeometry x="320" y="570" width="100" height="100" as="geometry"/>
                </mxCell>
                <mxCell id="YErhwaJgUylqlBmE_m-7-22" style="edgeStyle=orthogonalEdgeStyle;rounded=0;orthogonalLoop=1;jettySize=auto;html=1;entryX=0.5;entryY=0;entryDx=0;entryDy=0;entryPerimeter=0;" parent="1" source="YErhwaJgUylqlBmE_m-7-15" target="YErhwaJgUylqlBmE_m-7-14" edge="1">
                    <mxGeometry relative="1" as="geometry"/>
                </mxCell>
                <mxCell id="YErhwaJgUylqlBmE_m-7-23" style="edgeStyle=orthogonalEdgeStyle;rounded=0;orthogonalLoop=1;jettySize=auto;html=1;entryX=1.008;entryY=0.383;entryDx=0;entryDy=0;entryPerimeter=0;" parent="1" source="YErhwaJgUylqlBmE_m-7-14" target="YErhwaJgUylqlBmE_m-7-15" edge="1">
                    <mxGeometry relative="1" as="geometry">
                        <Array as="points">
                            <mxPoint x="490" y="360"/>
                            <mxPoint x="490" y="203"/>
                        </Array>
                    </mxGeometry>
                </mxCell>
                <mxCell id="YErhwaJgUylqlBmE_m-7-24" value="Verdadeira" style="edgeLabel;html=1;align=center;verticalAlign=middle;resizable=0;points=[];" parent="YErhwaJgUylqlBmE_m-7-23" vertex="1" connectable="0">
                    <mxGeometry x="-0.0846" y="-2" relative="1" as="geometry">
                        <mxPoint as="offset"/>
                    </mxGeometry>
                </mxCell>
                <mxCell id="YErhwaJgUylqlBmE_m-7-25" style="edgeStyle=orthogonalEdgeStyle;rounded=0;orthogonalLoop=1;jettySize=auto;html=1;entryX=0.5;entryY=0;entryDx=0;entryDy=0;entryPerimeter=0;" parent="1" source="YErhwaJgUylqlBmE_m-7-14" target="YErhwaJgUylqlBmE_m-7-17" edge="1">
                    <mxGeometry relative="1" as="geometry"/>
                </mxCell>
                <mxCell id="YErhwaJgUylqlBmE_m-7-26" value="Falsa" style="edgeLabel;html=1;align=center;verticalAlign=middle;resizable=0;points=[];" parent="YErhwaJgUylqlBmE_m-7-25" vertex="1" connectable="0">
                    <mxGeometry x="-0.225" y="-1" relative="1" as="geometry">
                        <mxPoint as="offset"/>
                    </mxGeometry>
                </mxCell>
                <mxCell id="YErhwaJgUylqlBmE_m-7-28" value="Início" style="strokeWidth=2;html=1;shape=mxgraph.flowchart.start_2;whiteSpace=wrap;fillColor=#d5e8d4;strokeColor=#82b366;" parent="1" vertex="1">
                    <mxGeometry x="610" y="30" width="100" height="100" as="geometry"/>
                </mxCell>
                <mxCell id="YErhwaJgUylqlBmE_m-7-38" value="" style="edgeStyle=orthogonalEdgeStyle;rounded=0;orthogonalLoop=1;jettySize=auto;html=1;" parent="1" source="YErhwaJgUylqlBmE_m-7-29" target="YErhwaJgUylqlBmE_m-7-37" edge="1">
                    <mxGeometry relative="1" as="geometry"/>
                </mxCell>
                <mxCell id="YErhwaJgUylqlBmE_m-7-29" value="Ultimo?" style="strokeWidth=2;html=1;shape=mxgraph.flowchart.decision;whiteSpace=wrap;fillColor=#fa6800;fontColor=#000000;strokeColor=#C73500;" parent="1" vertex="1">
                    <mxGeometry x="610" y="350" width="100" height="100" as="geometry"/>
                </mxCell>
                <mxCell id="YErhwaJgUylqlBmE_m-7-31" value="FIM" style="strokeWidth=2;html=1;shape=mxgraph.flowchart.start_2;whiteSpace=wrap;fillColor=#f8cecc;strokeColor=#b85450;" parent="1" vertex="1">
                    <mxGeometry x="610" y="570" width="100" height="100" as="geometry"/>
                </mxCell>
                <mxCell id="YErhwaJgUylqlBmE_m-7-35" style="edgeStyle=orthogonalEdgeStyle;rounded=0;orthogonalLoop=1;jettySize=auto;html=1;entryX=0.5;entryY=0;entryDx=0;entryDy=0;entryPerimeter=0;" parent="1" source="YErhwaJgUylqlBmE_m-7-29" target="YErhwaJgUylqlBmE_m-7-31" edge="1">
                    <mxGeometry relative="1" as="geometry"/>
                </mxCell>
                <mxCell id="YErhwaJgUylqlBmE_m-7-41" value="" style="edgeStyle=orthogonalEdgeStyle;rounded=0;orthogonalLoop=1;jettySize=auto;html=1;" parent="1" source="YErhwaJgUylqlBmE_m-7-37" target="YErhwaJgUylqlBmE_m-7-40" edge="1">
                    <mxGeometry relative="1" as="geometry"/>
                </mxCell>
                <mxCell id="YErhwaJgUylqlBmE_m-7-37" value="Executa" style="whiteSpace=wrap;html=1;strokeWidth=2;fillColor=#1ba1e2;strokeColor=#006EAF;fontColor=#ffffff;" parent="1" vertex="1">
                    <mxGeometry x="760" y="370" width="120" height="60" as="geometry"/>
                </mxCell>
                <mxCell id="YErhwaJgUylqlBmE_m-7-40" value="Incrementa" style="whiteSpace=wrap;html=1;strokeWidth=2;fillColor=#1ba1e2;strokeColor=#006EAF;fontColor=#ffffff;" parent="1" vertex="1">
                    <mxGeometry x="740" y="210" width="120" height="60" as="geometry"/>
                </mxCell>
                <mxCell id="YErhwaJgUylqlBmE_m-7-42" style="edgeStyle=orthogonalEdgeStyle;rounded=0;orthogonalLoop=1;jettySize=auto;html=1;entryX=0.5;entryY=0;entryDx=0;entryDy=0;entryPerimeter=0;" parent="1" source="YErhwaJgUylqlBmE_m-7-40" target="YErhwaJgUylqlBmE_m-7-29" edge="1">
                    <mxGeometry relative="1" as="geometry"/>
                </mxCell>
                <mxCell id="YErhwaJgUylqlBmE_m-7-43" style="edgeStyle=orthogonalEdgeStyle;rounded=0;orthogonalLoop=1;jettySize=auto;html=1;entryX=0;entryY=0.5;entryDx=0;entryDy=0;entryPerimeter=0;" parent="1" source="YErhwaJgUylqlBmE_m-7-28" target="YErhwaJgUylqlBmE_m-7-29" edge="1">
                    <mxGeometry relative="1" as="geometry">
                        <Array as="points">
                            <mxPoint x="660" y="200"/>
                            <mxPoint x="590" y="200"/>
                            <mxPoint x="590" y="400"/>
                        </Array>
                    </mxGeometry>
                </mxCell>
            </root>
        </mxGraphModel>
    </diagram>
</mxfile>